HIERARCHY
ROOT hip
{
  OFFSET 0 0 0
  CHANNELS 6 Xposition Yposition Zposition Zrotation Yrotation Xrotation
  JOINT abdomen
  {
    OFFSET 0 20.6881 -0.73152
    CHANNELS 3 Zrotation Xrotation Yrotation
    JOINT chest
    {
      OFFSET 0 11.7043 -0.48768
      CHANNELS 3 Zrotation Xrotation Yrotation
      JOINT neck
      {
        OFFSET 0 22.1894 -2.19456
        CHANNELS 3 Zrotation Xrotation Yrotation
        JOINT head
        {
          OFFSET -0.24384 7.07133 1.2192
          CHANNELS 3 Zrotation Xrotation Yrotation
          JOINT leftEye
          {
            OFFSET 4.14528 8.04674 8.04672
            CHANNELS 3 Zrotation Xrotation Yrotation
            End Site
            {
              OFFSET 1 0 0
            }
          }
          JOINT rightEye
          {
            OFFSET -3.6576 8.04674 8.04672
            CHANNELS 3 Zrotation Xrotation Yrotation
            End Site
            {
              OFFSET 1 0 0
            }
          }
        }
      }
      JOINT rCollar
      {
        OFFSET -2.68224 19.2634 -4.8768
        CHANNELS 3 Zrotation Xrotation Yrotation
        JOINT rShldr
        {
          OFFSET -8.77824 -1.95073 1.46304
          CHANNELS 3 Zrotation Xrotation Yrotation
          JOINT rForeArm
          {
            OFFSET -28.1742 -1.7115 0.48768
            CHANNELS 3 Zrotation Xrotation Yrotation
            JOINT rHand
            {
              OFFSET -22.5879 0.773209 7.07136
              CHANNELS 3 Zrotation Xrotation Yrotation
              JOINT rThumb1
              {
                OFFSET -1.2192 -0.487915 3.41376
                CHANNELS 3 Zrotation Xrotation Yrotation
                JOINT rThumb2
                {
                  OFFSET -3.37035 -0.52449 3.41376
                  CHANNELS 3 Zrotation Xrotation Yrotation
                  End Site
                  {
                    OFFSET -1.78271 -1.18214 1.43049
                  }
                }
              }
              JOINT rIndex1
              {
                OFFSET -7.75947 0.938293 5.60832
                CHANNELS 3 Zrotation Xrotation Yrotation
                JOINT rIndex2
                {
                  OFFSET -2.54057 -0.884171 1.56538
                  CHANNELS 3 Zrotation Xrotation Yrotation
                  End Site
                  {
                    OFFSET -1.62519 -0.234802 1.16502
                  }
                }
              }
              JOINT rMid1
              {
                OFFSET -8.24714 1.18213 3.41376
                CHANNELS 3 Zrotation Xrotation Yrotation
                JOINT rMid2
                {
                  OFFSET -3.10165 -0.590103 1.0647
                  CHANNELS 3 Zrotation Xrotation Yrotation
                  End Site
                  {
                    OFFSET -2.48547 -0.328903 0.83742
                  }
                }
              }
              JOINT rRing1
              {
                OFFSET -8.82822 0.546677 1.51678
                CHANNELS 3 Zrotation Xrotation Yrotation
                JOINT rRing2
                {
                  OFFSET -2.60934 -0.819778 -0.0198488
                  CHANNELS 3 Zrotation Xrotation Yrotation
                  End Site
                  {
                    OFFSET -2.33842 -0.294052 0.168128
                  }
                }
              }
              JOINT rPinky1
              {
                OFFSET -8.27202 -0.0477905 -0.4584
                CHANNELS 3 Zrotation Xrotation Yrotation
                JOINT rPinky2
                {
                  OFFSET -1.82734 -0.647385 -0.700984
                  CHANNELS 3 Zrotation Xrotation Yrotation
                  End Site
                  {
                    OFFSET -1.69225 -0.51767 -0.607171
                  }
                }
              }
            }
          }
        }
      }
      JOINT lCollar
      {
        OFFSET 2.68224 19.2634 -4.8768
        CHANNELS 3 Zrotation Xrotation Yrotation
        JOINT lShldr
        {
          OFFSET 8.77824 -1.95073 1.46304
          CHANNELS 3 Zrotation Xrotation Yrotation
          JOINT lForeArm
          {
            OFFSET 28.1742 -1.7115 0.48768
            CHANNELS 3 Zrotation Xrotation Yrotation
            JOINT lHand
            {
              OFFSET 22.5879 0.773209 7.07136
              CHANNELS 3 Zrotation Xrotation Yrotation
              JOINT lThumb1
              {
                OFFSET 1.2192 -0.487915 3.41376
                CHANNELS 3 Zrotation Xrotation Yrotation
                JOINT lThumb2
                {
                  OFFSET 3.37035 -0.52449 3.41376
                  CHANNELS 3 Zrotation Xrotation Yrotation
                  End Site
                  {
                    OFFSET 1.78271 -1.18214 1.43049
                  }
                }
              }
              JOINT lIndex1
              {
                OFFSET 7.75947 0.938293 5.60832
                CHANNELS 3 Zrotation Xrotation Yrotation
                JOINT lIndex2
                {
                  OFFSET 2.54057 -0.884171 1.56538
                  CHANNELS 3 Zrotation Xrotation Yrotation
                  End Site
                  {
                    OFFSET 1.62519 -0.234802 1.16502
                  }
                }
              }
              JOINT lMid1
              {
                OFFSET 8.24714 1.18213 3.41376
                CHANNELS 3 Zrotation Xrotation Yrotation
                JOINT lMid2
                {
                  OFFSET 3.10165 -0.590103 1.0647
                  CHANNELS 3 Zrotation Xrotation Yrotation
                  End Site
                  {
                    OFFSET 2.48547 -0.328903 0.83742
                  }
                }
              }
              JOINT lRing1
              {
                OFFSET 8.82822 0.546677 1.51678
                CHANNELS 3 Zrotation Xrotation Yrotation
                JOINT lRing2
                {
                  OFFSET 2.60934 -0.819778 -0.0198488
                  CHANNELS 3 Zrotation Xrotation Yrotation
                  End Site
                  {
                    OFFSET 2.33842 -0.294052 0.168128
                  }
                }
              }
              JOINT lPinky1
              {
                OFFSET 8.27202 -0.0477905 -0.4584
                CHANNELS 3 Zrotation Xrotation Yrotation
                JOINT lPinky2
                {
                  OFFSET 1.82734 -0.647385 -0.700984
                  CHANNELS 3 Zrotation Xrotation Yrotation
                  End Site
                  {
                    OFFSET 1.69225 -0.51767 -0.607171
                  }
                }
              }
            }
          }
        }
      }
    }
  }
  JOINT rButtock
  {
    OFFSET -8.77824 4.35084 1.2192
    CHANNELS 3 Zrotation Xrotation Yrotation
    JOINT rThigh
    {
      OFFSET 0 -1.70687 -2.19456
      CHANNELS 3 Zrotation Xrotation Yrotation
      JOINT rShin
      {
        OFFSET 0 -36.8199 0.73152
        CHANNELS 3 Zrotation Xrotation Yrotation
        JOINT rFoot
        {
          OFFSET 0.73152 -45.1104 -5.12064
          CHANNELS 3 Zrotation Xrotation Yrotation
          End Site
          {
            OFFSET -1.1221 -3.69964 12.103
          }
        }
      }
    }
  }
  JOINT lButtock
  {
    OFFSET 8.77824 4.35084 1.2192
    CHANNELS 3 Zrotation Xrotation Yrotation
    JOINT lThigh
    {
      OFFSET 0 -1.70687 -2.19456
      CHANNELS 3 Zrotation Xrotation Yrotation
      JOINT lShin
      {
        OFFSET 0 -36.8199 0.73152
        CHANNELS 3 Zrotation Xrotation Yrotation
        JOINT lFoot
        {
          OFFSET -0.73152 -45.1104 -5.12064
          CHANNELS 3 Zrotation Xrotation Yrotation
          End Site
          {
            OFFSET 1.1221 -3.69964 12.103
          }
        }
      }
    }
  }
}
MOTION
Frames:	8
Frame Time:	0.03333
0.1832 46.4167 -0.8403 -12.332561 3.455884 7.825205 4.593534 3.36626 102.78711 -5.966 -3.639194 -97.105372 -7.873257 28.916064 -116.545686 32.494522 31.906041 128.278425 -0.000405 -0.0 0.000355 -0.000405 -0.0 0.000355 -154.763956 1.055929 160.83957 -128.307476 34.387698 81.803751 -118.223335 68.881238 -128.413254 -8.819321 -51.72666 -12.123705 -7.506629 7.205591 1.613132 -9.462584 9.896595 12.365441 28.214064 -48.132698 -4.548328 71.598526 -57.657952 19.261247 -156.245958 6.200658 140.803584 -1.797877 13.718893 2.805315 -0.029608 -2.266852 -0.713597 9.639975 10.504688 1.334633 23.582424 76.104085 12.11179 31.333544 75.833707 2.455605 1.554323 8.40523 -1.991751 94.499364 21.145124 -84.402097 -178.297727 8.004513 164.556585 131.672831 82.943395 -130.006334 14.535676 13.417803 -3.892204 -42.872608 -50.65103 7.780654 128.281083 18.229962 -107.828057 172.241973 -28.580076 -117.04493 6.281219 16.287258 -4.059544 166.609007 -15.312589 -144.138309 145.114198 -0.209161 179.062804 153.872985 -14.686501 177.169657 -12.601185 42.803984 -10.512021 -4.754793 8.904339 -2.168152 -179.936847 75.74783 -0.050258 107.768117 73.337207 2.981579 -31.940558 15.741112 79.856484 143.168503 -51.307136 44.608377 179.946859 75.750619 0.04059 -147.079235 -14.226078 50.813982 91.172762 33.078782 5.742249 -154.497778 13.037815 87.884038
0.0658 46.5538 -1.1887 -11.713925 3.250213 7.710009 7.910048 5.806675 -51.557231 5.992331 -3.770419 57.701752 -9.939995 25.105155 -90.766968 38.379737 18.021979 105.282961 0.004167 -0.0 -0.00014 -0.001509 -0.0 0.000561 -1.314976 7.219363 1.693734 -122.938195 22.681015 -149.042985 -10.198506 50.179832 -130.698412 -157.648557 14.579497 138.089552 4.750829 -4.735255 -0.537045 -34.676218 26.571756 28.619826 -163.975971 -39.637746 122.529146 16.382623 -5.899465 -10.226263 0.810503 -2.392662 -0.438282 -7.124609 25.823904 5.894682 -0.004798 -0.331757 -0.102438 -155.571658 -3.989895 172.33814 15.072539 52.506151 11.942268 -0.287789 -4.900384 -2.043615 141.344325 42.20101 -145.659936 81.598839 -47.129039 57.158838 174.667356 -54.192305 163.128348 31.611276 79.387183 -33.133988 168.02657 -5.703719 -89.866575 138.433923 7.965152 -68.957365 147.586185 -10.251457 -119.709902 174.242393 -37.976949 -116.846882 165.320227 -21.483001 -144.907818 137.886087 44.612586 -125.896853 -0.003439 2.331351 -0.73033 155.482977 -59.036093 179.989551 137.564128 -8.211753 134.833902 144.552197 4.386721 139.913239 179.989542 75.750687 0.010191 113.179583 71.836668 -53.950793 -47.94759 -14.629825 -108.010079 -133.111421 6.394991 -164.822211 0.000894 -0.00135 0.001191 94.203724 -58.911828 -176.572738 87.824808 -13.453296 -24.166827 -138.405179 15.82463 53.714765
-0.0964 46.7196 -1.5650000000000002 -11.051519 3.057682 7.53323 2.738555 4.361127 99.577186 -5.928655 -4.200586 -93.644664 -9.006494 18.46684 -51.336351 35.33586 -5.491601 72.669484 -0.001092 -0.0 0.000284 -0.001092 -0.0 0.000284 2.650152 -20.046523 -4.01015 -176.668848 33.004307 -119.833706 147.8521 83.379962 73.27056 -150.369861 27.600106 130.711207 -4.025856 3.922962 0.752958 -114.976619 -5.384206 103.827578 52.478795 -67.585506 9.462571 -167.415612 -32.06954 112.582351 10.341787 -32.372401 -3.260863 -168.302381 -19.962101 144.265077 -0.001057 0.092721 0.028019 -156.584196 -32.689645 175.693321 -0.796057 -2.034438 -0.735417 3.497352 2.767148 0.837986 148.002237 28.184849 -152.842088 -121.897848 39.31494 128.254809 -177.997843 -25.765498 -125.413609 -106.733556 -59.171345 -108.863915 -142.552298 -42.994625 -74.059413 31.052324 -25.491223 15.111436 71.119386 43.298845 -58.638474 -4.711838 2.274511 3.679172 167.237481 -27.575694 -145.251966 167.921563 -18.586871 -143.878591 145.122112 0.713288 179.351782 2.178771 -54.530324 22.94119 -15.904048 55.619975 -12.312286 143.051112 -3.350422 138.95187 -0.000599 -0.00054 -0.001525 -17.306644 6.024239 -93.910992 -39.497966 -1.79455 96.796963 -63.787204 16.713131 -13.276257 0.000259 0.001216 -0.000358 92.209025 -59.397105 177.125576 95.119947 -4.113365 67.243873 161.453591 32.640616 152.407131
-0.29069999999999996 46.929700000000004 -1.978 -10.382057 2.92013 7.324295 4.361569 7.566591 -5.888305 3.513132 -7.54891 12.307569 11.33779 22.532675 96.683144 -35.299723 7.213538 -75.984379 0.002993 -0.0 -0.004351 0.003473 0.0 0.000799 -3.184904 15.641914 3.957582 -98.776953 -14.788722 -156.08896 16.102659 -9.951454 -139.849723 -144.871687 34.636644 125.126883 -175.175916 -12.825187 89.809447 144.807613 -49.246061 99.908781 17.964852 -32.261122 -5.962583 151.266339 -57.775698 85.658794 -147.537615 25.684816 134.512979 -167.276697 -17.251273 143.860539 0.005338 0.849102 0.266629 8.616881 17.620017 2.426538 -147.814016 20.880184 -144.108754 -155.936789 37.337165 -146.032714 12.198058 39.841409 -13.929706 152.154382 43.356644 -102.975549 -26.015627 -40.692949 33.349264 -137.697569 -46.642151 -138.141936 8.950408 8.532118 -2.024308 11.47242 11.233304 -14.772484 144.185246 -4.276064 -118.103578 155.863299 -1.351153 -118.487395 166.334575 -24.724184 -145.116421 -20.402665 -46.525118 -1.273438 145.072003 -2.841559 178.233748 -12.270193 33.791701 5.169603 156.425877 53.904791 150.139938 91.447214 -51.199662 89.962145 179.966379 75.749088 0.026982 115.374054 70.171491 -24.835361 -41.4768 1.056945 78.374596 -72.733642 6.122611 -3.27917 0.00345 0.000285 0.004415 90.240173 -59.881924 179.928129 88.766521 -0.344759 164.202285 117.684503 -44.082806 -145.844384
-0.5383 47.1704 -2.4452000000000003 -9.801074 2.917527 7.120933 4.826849 7.492693 -37.055819 5.693228 -4.935033 43.384305 9.32848 17.512577 65.927033 -29.258372 -10.824316 -50.24969 0.002709 0.0 0.00263 0.002227 -0.0 -0.002523 2.735168 -20.885857 -4.165461 -86.896679 -28.255385 -116.008878 179.468846 -1.102198 -74.027794 -13.20992 -27.257346 -7.069782 -6.949791 6.689804 1.46173 -106.946143 2.136618 97.324348 15.566595 -27.966996 -5.752292 174.182065 -45.427012 101.721356 -176.001882 -50.824204 144.009027 -163.379331 -4.612701 143.007453 -145.109323 -0.74936 -178.892795 12.197474 45.352835 -3.779592 -134.987955 -13.539053 -132.393527 -140.376133 -5.759308 -136.753568 156.342462 -9.372313 -163.041419 -111.363427 45.172545 88.716964 -25.197174 -15.289307 -19.972345 174.06985 63.089705 -164.651058 -48.931646 -40.179918 -11.678195 38.868201 26.754687 -10.394152 138.460649 4.946469 -114.843839 -14.285533 -10.906206 10.109415 157.844813 1.762985 -141.763237 2.462522 15.297137 -3.184873 145.117135 -0.195218 179.067032 150.484974 -34.436495 173.20346 -12.493066 42.376842 -10.44083 149.930709 17.754566 144.740688 -179.956983 75.748638 -0.032395 115.483786 67.178395 175.937264 43.689029 -26.031385 -18.953248 7.612063 61.902549 -114.374315 -0.0525 0.001021 -0.041894 88.063023 -58.112399 4.73145 -90.720848 8.584138 -49.903968 119.297897 -11.770607 -158.094076
-0.8366 47.435500000000005 -2.9999000000000002 -9.381423 3.097961 6.935553 1.517624 3.984732 144.859528 -5.524783 0.338005 -138.792481 -9.372811 19.267751 -54.334864 36.951794 -4.295694 75.001307 0.002695 -0.0 -2.6e-05 0.002695 -0.0 -2.6e-05 2.69056 -20.443055 -4.083618 92.276231 35.45621 -64.815146 -144.959263 -12.801766 39.923178 -167.148363 -11.834472 147.256646 107.130728 -50.948287 50.51412 -17.609668 -47.74066 -29.580853 114.579637 -76.254691 63.218349 -3.78796 30.007449 3.133183 -3.906879 10.621422 2.405599 -157.604168 11.368111 140.864165 -0.090217 7.273915 2.294305 -156.932752 -20.168464 174.25277 -148.533211 23.44822 -144.717489 -145.508671 5.327662 -140.106012 159.106851 -54.49169 -171.923314 117.374327 8.175512 158.153066 3.56108 51.338786 46.472986 -87.809239 -60.699199 -88.823691 -12.475953 -12.438596 0.568931 -15.127202 -39.226048 22.226983 98.461671 38.629634 -83.091114 -84.793695 -65.964895 -37.724737 -4.611581 -14.225469 2.128029 -5.662474 -7.555398 0.853291 0.006229 3.409603 -1.072052 -8.618792 15.834476 -2.135559 35.501745 -44.288295 34.401151 153.804463 37.169372 147.88054 179.99082 75.748828 0.008056 118.38982 68.760749 -18.316017 -43.577592 9.931337 94.132038 90.549989 -62.546975 7.792198 -179.991083 75.750813 -0.008167 -150.402231 -10.993138 122.711651 86.260882 -39.376952 0.41502 -3.942644 10.467751 -92.981281
-1.2132 47.7241 -3.6731 -9.07395 3.388509 6.770896 0.233917 6.997047 72.448205 -4.291128 -6.727147 -66.557426 10.9633 26.112413 116.520972 -35.984993 19.523831 -92.318101 -0.003107 0.0 -0.00189 0.002574 -0.0 -0.002574 -156.537356 -10.862145 163.337394 115.156313 -18.715947 138.771536 0.451755 -18.098044 106.555784 -11.371088 -34.549391 -8.607126 2.296294 -2.279459 -0.308837 16.513815 -27.84161 -14.092818 76.017844 -74.002081 28.807053 17.419422 -1.134914 -6.050167 -162.552527 -12.581415 144.046315 -21.762144 45.693536 17.830053 0.005333 1.819612 0.573047 -148.468614 44.716137 162.978576 -150.00464 28.866666 -145.912803 -161.590944 53.241347 -146.851311 155.924339 -6.348056 -162.43047 69.478515 -37.780791 90.593935 7.303025 -1.782838 50.908985 -67.323616 -58.861585 -68.256003 -0.906864 -0.895752 0.133126 129.838338 -25.854654 -115.2784 150.270668 -15.154735 -120.765546 13.250586 37.178211 -3.799349 -27.192435 -65.106645 -3.608205 162.34603 -1.388393 -142.838724 -0.004677 1.340134 -0.420827 152.090091 29.354454 -167.176588 167.690725 79.870588 148.34017 9.472715 -22.323472 10.678428 -0.014258 -0.001073 -0.00983 -21.056303 2.01861 91.569354 46.98065 -1.799541 -92.030734 -86.802781 11.790657 2.570778 0.000903 0.001957 -0.000356 83.710738 -61.668996 169.98792 89.709287 -0.203698 108.164025 59.662659 0.192296 175.123933
-1.6937 48.0352 -4.481 -8.799589 3.588639 6.670066 1.833821 4.250027 169.933458 -3.586679 2.468987 -164.001441 -10.127939 25.632075 -90.966361 40.522202 18.03238 104.081962 -0.001507 0.0 -0.002161 -0.001507 0.0 -0.002161 2.148973 -15.410273 -3.14052 -27.457889 -39.465295 -83.649211 -18.836013 -45.387944 -157.850592 -162.420331 4.331965 142.146312 -5.271245 5.111329 1.038463 -149.883076 -58.100431 116.270859 -5.557545 8.437538 3.409257 173.256099 -41.781547 102.608463 -160.078941 -4.841969 142.959094 -164.11363 -7.272308 143.206283 -145.08262 -2.483306 -178.346049 -127.167369 -69.268833 -149.229738 -134.609179 -14.268347 -132.034876 40.404382 77.80783 -4.393541 147.294274 30.077673 -152.060963 -131.550719 33.056663 136.540936 164.595805 -1.159518 -127.211409 -67.87704 -59.035706 -68.105733 18.00107 16.236614 -5.257911 -28.692085 -31.273868 4.528818 151.056403 -16.606855 -121.035661 -3.731402 14.451527 6.990315 151.603628 17.562221 -137.633159 70.111434 63.74806 -62.775397 143.65844 -21.037556 172.152517 140.633519 82.334836 -156.338859 138.971815 -4.994517 136.156048 146.270554 8.98007 141.100473 -179.903784 75.749898 -0.076243 122.710784 64.612791 171.327785 60.072468 -23.056656 106.953719 177.272992 6.357237 -113.786205 -0.028548 -0.000267 -0.020796 82.658318 -62.311138 -167.748197 81.775912 -20.044883 172.031436 146.625302 -2.792447 -105.729029
